<svg width="41" height="40" viewBox="0 0 41 40" fill="none" xmlns="http://www.w3.org/2000/svg">
<path d="M20.5 40C31.5457 40 40.5 31.0457 40.5 20C40.5 8.9543 31.5457 0 20.5 0C9.4543 0 0.5 8.9543 0.5 20C0.5 31.0457 9.4543 40 20.5 40Z" fill="#E6F7FF"/>
<path d="M22.1242 20.541H18.8762C18.8052 20.541 18.7348 20.555 18.6692 20.5822C18.6035 20.6094 18.5439 20.6492 18.4937 20.6995C18.4434 20.7497 18.4036 20.8093 18.3764 20.875C18.3492 20.9406 18.3352 21.011 18.3352 21.082V28.118C18.3352 28.1891 18.3492 28.2594 18.3764 28.325C18.4036 28.3907 18.4434 28.4503 18.4937 28.5006C18.5439 28.5508 18.6035 28.5906 18.6692 28.6178C18.7348 28.645 18.8052 28.659 18.8762 28.659H22.1242C22.2677 28.659 22.4053 28.602 22.5068 28.5006C22.6082 28.3991 22.6652 28.2615 22.6652 28.118V21.082C22.6652 20.9385 22.6082 20.8009 22.5068 20.6995C22.4053 20.598 22.2677 20.541 22.1242 20.541Z" fill="#1890FF"/>
<path d="M15.6291 23.789H12.3811C12.2376 23.789 12.1 23.846 11.9985 23.9475C11.8971 24.0489 11.8401 24.1865 11.8401 24.33V28.119C11.8401 28.2625 11.8971 28.4001 11.9985 28.5015C12.1 28.603 12.2376 28.66 12.3811 28.66H15.6291C15.7726 28.66 15.9102 28.603 16.0116 28.5015C16.1131 28.4001 16.1701 28.2625 16.1701 28.119V24.33C16.1701 24.1865 16.1131 24.0489 16.0116 23.9475C15.9102 23.846 15.7726 23.789 15.6291 23.789Z" fill="#1890FF"/>
<path d="M28.6191 17.294H25.3711C25.3 17.294 25.2297 17.308 25.164 17.3352C25.0984 17.3624 25.0388 17.4022 24.9885 17.4525C24.9383 17.5027 24.8984 17.5623 24.8713 17.628C24.8441 17.6936 24.8301 17.764 24.8301 17.835V28.119C24.8301 28.1901 24.8441 28.2604 24.8713 28.326C24.8984 28.3917 24.9383 28.4513 24.9885 28.5016C25.0388 28.5518 25.0984 28.5916 25.164 28.6188C25.2297 28.646 25.3 28.66 25.3711 28.66H28.6191C28.7626 28.66 28.9002 28.603 29.0016 28.5016C29.1031 28.4001 29.1601 28.2625 29.1601 28.119V17.835C29.1601 17.6915 29.1031 17.5539 29.0016 17.4525C28.9002 17.351 28.7626 17.294 28.6191 17.294Z" fill="#1890FF"/>
<path d="M20.5001 17.84C20.5712 17.8401 20.6417 17.826 20.7074 17.7988C20.7732 17.7715 20.8329 17.7315 20.8831 17.681L25.3721 13.188V15.67H26.4551V11.881C26.4551 11.8098 26.441 11.7393 26.4137 11.6735C26.3864 11.6078 26.3464 11.548 26.2959 11.4978C26.2455 11.4475 26.1856 11.4077 26.1197 11.3806C26.0539 11.3536 25.9833 11.3398 25.9121 11.34H22.1241V12.423H24.6061L20.5001 16.529L18.1771 14.205C18.0756 14.1036 17.938 14.0466 17.7946 14.0466C17.6511 14.0466 17.5135 14.1036 17.4121 14.205L14.7051 16.911L15.4701 17.676L17.7941 15.353L20.1181 17.677C20.1678 17.7281 20.2272 17.7687 20.2928 17.7967C20.3583 17.8247 20.4288 17.8394 20.5001 17.84Z" fill="#1890FF"/>
</svg>
