<svg width="945" height="39" viewBox="0 0 945 39" fill="none" xmlns="http://www.w3.org/2000/svg">
<path d="M98.093 15.795L91.5378 21.952L98.6062 30.076C96.8552 30.076 95.338 30.106 93.824 30.046C93.575 30.036 93.3092 29.657 93.1062 29.404C91.2982 27.161 89.5061 24.904 87.4861 22.697V30.005H83.7859V9.26001H87.4182V21.439L87.7068 21.596C88.1848 21.065 88.6579 20.529 89.1409 20.003C90.3679 18.669 91.5851 17.325 92.8411 16.018C93.1003 15.7287 93.4515 15.5377 93.8352 15.477C95.1712 15.415 96.5118 15.452 97.8508 15.452L98.093 15.795Z" fill="#8989A2"/>
<path d="M131.398 30.096V15.523H134.898V17.48L135.272 17.749C135.296 17.5539 135.355 17.3647 135.446 17.19C136.164 16.2251 137.176 15.5186 138.33 15.1761C139.483 14.8336 140.717 14.8736 141.846 15.29C142.915 15.6717 143.836 16.3817 144.478 17.3185C145.119 18.2553 145.448 19.371 145.418 20.506C145.455 23.658 145.427 26.811 145.427 30.095C144.308 30.095 143.273 30.141 142.249 30.057C142.038 30.04 141.708 29.542 141.702 29.257C141.656 27.073 141.678 24.889 141.675 22.704C141.675 22.304 141.669 21.897 141.646 21.495C141.513 19.144 140.58 18.034 138.738 18.027C138.265 18.0071 137.793 18.0846 137.351 18.2547C136.909 18.4248 136.507 18.6838 136.17 19.0158C135.832 19.3477 135.566 19.7454 135.389 20.1842C135.211 20.6231 135.126 21.0938 135.138 21.567C135.045 24.017 135.054 26.473 135.101 28.925C135.119 29.834 134.891 30.206 133.934 30.111C133.111 30.031 132.274 30.096 131.398 30.096Z" fill="#8989A2"/>
<path d="M70.03 30.03H66.4568V15.522H69.9031C69.9411 16.208 69.9771 16.853 70.0271 17.733C70.4414 17.0185 71.0115 16.4067 71.6951 15.9432C72.3786 15.4797 73.1578 15.1764 73.9749 15.056C77.7099 14.621 80.334 16.85 80.427 20.626C80.498 23.514 80.4269 26.405 80.4529 29.294C80.4579 29.909 80.2529 30.131 79.6379 30.106C78.7049 30.068 77.7702 30.096 76.6902 30.096C76.6902 29.582 76.6962 29.16 76.6902 28.738C76.6472 26.054 76.6399 23.369 76.5369 20.687C76.5567 20.0877 76.3651 19.5005 75.9954 19.0284C75.6256 18.5563 75.1015 18.2294 74.5149 18.105C73.8492 17.8844 73.1284 17.898 72.4714 18.1433C71.8145 18.3887 71.2612 18.8511 70.9031 19.454C70.3962 20.4251 70.1104 21.4964 70.0662 22.591C69.9492 25.039 70.03 27.488 70.03 30.03Z" fill="#8989A2"/>
<path d="M40.4919 18.27H38.0559V15.484H40.675C40.675 13.768 40.675 12.171 40.675 10.573C40.675 9.268 40.6751 9.26799 41.9841 9.26599C44.3611 9.26599 44.3601 9.26601 44.3621 11.622C44.3621 12.7647 44.3684 13.9073 44.3811 15.05C44.4055 15.1749 44.4445 15.2964 44.4978 15.412H48.1541V18.239H44.4329C44.4059 18.709 44.366 19.094 44.365 19.479C44.365 21.394 44.3359 23.311 44.3899 25.225C44.4429 27.092 45.1611 27.653 47.0261 27.419C47.3211 27.382 47.6198 27.37 47.8918 27.348C47.9368 27.427 47.967 27.456 47.968 27.486C48.048 30.196 48.7039 30.286 45.4939 30.349C42.2589 30.414 40.718 28.914 40.616 25.685C40.551 23.603 40.5798 21.519 40.5598 19.436C40.5558 19.076 40.5179 18.718 40.4919 18.27Z" fill="#8989A2"/>
<path d="M27.8289 15.956C27.6469 16.111 27.5747 16.169 27.5067 16.232C27.2787 16.444 27.0514 16.6567 26.824 16.87C26.6149 16.6238 26.4372 16.3524 26.2957 16.062C26.0437 15.334 25.896 14.569 25.638 13.844C25.2003 12.3563 24.4434 10.9818 23.4207 9.81601C22.4207 12.208 22.4207 12.208 21.8997 12.463C21.716 10.9815 21.4556 9.51046 21.119 8.056C20.712 6.597 20.039 5.21201 19.429 3.65601L18.2371 5.76202C17.7201 4.53202 17.3658 3.48701 16.8528 2.52701C16.3984 1.47193 15.6223 0.587466 14.6351 0C14.4351 5.153 11.8779 8.83401 7.59991 10.152L7.06085 8.22202C5.70817 9.39383 4.71384 10.9239 4.19269 12.636C3.66669 14.283 3.29271 15.978 2.83771 17.68L2.2381 17.401C1.46886 19.1283 1.0014 20.9747 0.85675 22.86C0.19475 30.492 6.48907 37.913 13.7811 38.003C17.0357 38.1609 20.2314 37.0938 22.7381 35.012C28.7431 29.878 29.1269 23.194 27.8289 15.956ZM20.5067 31.891C20.1958 31.9814 19.9098 32.1409 19.6693 32.3575C19.4287 32.5741 19.2403 32.8423 19.118 33.142C18.6391 34.1287 17.8575 34.9369 16.8875 35.4489C15.9176 35.961 14.8098 36.1502 13.7249 35.989C12.622 35.806 11.6162 35.2473 10.8782 34.4074C10.1403 33.5676 9.7157 32.4983 9.67609 31.381C9.62957 31.0137 9.44074 30.6791 9.15069 30.449C8.26238 29.9197 7.56561 29.1212 7.16144 28.1694C6.75726 27.2176 6.66662 26.1618 6.90265 25.155C7.06026 24.2032 7.50191 23.3211 8.16925 22.6243C8.83659 21.9276 9.69873 21.4485 10.6429 21.25C11.6152 20.9497 12.6595 20.9803 13.6126 21.3369C14.5657 21.6936 15.3737 22.3562 15.91 23.221C15.987 23.327 16.0741 23.427 16.1561 23.53L16.2557 23.247C17.5093 23.0243 18.7845 22.9458 20.056 23.013C21.0091 23.1833 21.8737 23.6776 22.5042 24.4124C23.1347 25.1471 23.4923 26.0771 23.5159 27.045C23.6213 28.072 23.3829 29.1049 22.8382 29.9819C22.2935 30.8588 21.473 31.5303 20.5057 31.891H20.5067Z" fill="#8989A2"/>
<path d="M113.574 22.39C113.53 18.49 111.253 15.672 107.683 15.09C103.604 14.42 99.7946 16.474 98.5926 20.072C97.0656 24.641 99.2577 29.672 104.881 30.395C107.948 30.789 110.672 30.195 112.871 27.617C112.317 27.3274 111.779 27.0075 111.26 26.659C110.993 26.4457 110.663 26.3273 110.322 26.3224C109.98 26.3176 109.647 26.4265 109.374 26.632C108.49 27.0976 107.528 27.394 106.535 27.506C105.993 27.572 105.443 27.5288 104.918 27.379C104.393 27.2291 103.903 26.9756 103.478 26.6335C103.052 26.2913 102.7 25.8674 102.441 25.3868C102.182 24.9062 102.021 24.3785 101.97 23.835H113.57C113.574 23.258 113.58 22.824 113.574 22.39ZM102.042 21.274C102.023 20.6727 102.179 20.0789 102.49 19.5643C102.802 19.0496 103.255 18.6362 103.797 18.374C104.457 17.9331 105.23 17.6901 106.023 17.6738C106.817 17.6575 107.599 17.8685 108.277 18.282C108.788 18.5869 109.203 19.0307 109.473 19.5616C109.742 20.0926 109.855 20.6891 109.8 21.282L102.042 21.274Z" fill="#8989A2"/>
<path d="M128.698 19.638C128.655 18.6291 128.267 17.6658 127.598 16.9097C126.928 16.1535 126.019 15.6504 125.023 15.485C123.39 15.1778 121.72 15.1078 120.066 15.277C118.412 15.4493 116.867 16.1842 115.689 17.359L117.56 19.476C117.944 19.218 118.213 19.019 118.498 18.847C119.245 18.3252 120.108 17.9966 121.013 17.8905C121.917 17.7844 122.833 17.9041 123.68 18.239C123.958 18.3195 124.217 18.4546 124.441 18.6364C124.666 18.8182 124.852 19.0431 124.989 19.2978C125.126 19.5525 125.211 19.8319 125.238 20.1198C125.266 20.4076 125.236 20.698 125.149 20.974C124.701 20.999 124.235 21.029 123.77 21.052C121.353 21.172 118.918 21.264 116.77 22.57C116.169 22.9125 115.667 23.4057 115.313 24.001C114.96 24.5963 114.767 25.2733 114.755 25.9654C114.742 26.6576 114.91 27.3411 115.241 27.9488C115.573 28.5566 116.057 29.0677 116.645 29.432C117.94 30.2284 119.459 30.5821 120.972 30.44C121.813 30.4129 122.638 30.2094 123.395 29.8426C124.152 29.4759 124.824 28.954 125.366 28.311C125.417 29.011 125.452 29.495 125.491 30.031H129.036C128.937 26.518 128.935 23.07 128.698 19.638ZM123.898 27.038C123.261 27.482 122.515 27.7445 121.74 27.7973C120.965 27.8502 120.19 27.6914 119.498 27.338C119.238 27.2167 119.014 27.0282 118.85 26.7918C118.686 26.5554 118.589 26.2796 118.567 25.9929C118.545 25.7061 118.6 25.4188 118.726 25.1604C118.853 24.9021 119.046 24.682 119.285 24.523C119.754 24.1449 120.304 23.8825 120.893 23.757C122.293 23.529 123.724 23.441 125.247 23.287C125.444 24.937 125.141 26.224 123.895 27.034L123.898 27.038Z" fill="#8989A2"/>
<path d="M57.3539 15.049C52.3149 14.916 48.9219 17.93 48.8319 22.62C48.8187 24.7152 49.6381 26.7299 51.1103 28.2208C52.5824 29.7117 54.5868 30.5568 56.682 30.57C58.7773 30.5833 60.7917 29.7637 62.2826 28.2915C63.7735 26.8194 64.6185 24.8152 64.6318 22.72C64.6639 21.7369 64.5003 20.7572 64.1508 19.8377C63.8013 18.9182 63.2731 18.0772 62.5961 17.3636C61.9191 16.65 61.1068 16.078 60.2069 15.6807C59.3071 15.2833 58.3374 15.0686 57.3539 15.049ZM60.6029 24.397C60.489 24.9244 60.2685 25.423 59.955 25.8621C59.6415 26.3012 59.2415 26.6716 58.7797 26.9505C58.3179 27.2295 57.8035 27.4111 57.269 27.4843C56.7344 27.5575 56.1906 27.5206 55.6708 27.376C53.7958 26.89 52.6051 25.015 52.6181 22.57C52.6361 19.306 54.9991 17.28 57.8901 18.05C60.1821 18.66 61.3819 21.467 60.6029 24.397Z" fill="#8989A2"/>
<path d="M17.3645 28.1131C17.7645 27.6801 18.0105 27.1961 18.3645 27.0921C18.5776 27.0486 18.7981 27.0535 19.009 27.1065C19.22 27.1594 19.4164 27.2591 19.5837 27.3981C19.8527 27.6641 19.8456 28.2081 20.0066 28.8051L17.3645 28.1131Z" fill="#8989A2"/>
<path d="M11.017 27.098C11.007 26.174 11.3918 25.68 12.2558 25.709C13.0558 25.736 13.4489 26.19 13.3559 27.098H11.017Z" fill="#8989A2"/>
<path d="M255.149 15.9406C255.965 16.4986 256.797 17.0256 257.57 17.6566C258.476 18.4788 259.171 19.5074 259.596 20.6552C260.021 21.803 260.164 23.0364 260.011 24.2508C259.858 25.4652 259.415 26.6249 258.72 27.6319C258.024 28.6388 257.095 29.4633 256.013 30.0356C254.123 30.9463 252.047 31.4044 249.949 31.3736C245.684 31.3986 241.418 31.3736 237.149 31.3926C236.62 31.3926 236.434 31.2756 236.437 30.7086C236.458 25.7646 236.436 20.8206 236.452 15.8766C236.438 14.948 236.792 14.0515 237.437 13.3832C238.082 12.7149 238.965 12.3293 239.894 12.3106C240.586 12.2166 241.294 12.2556 241.977 12.1106C245.436 12.5637 248.835 13.3968 252.113 14.5946C252.846 14.8653 253.577 15.1382 254.306 15.4136C254.642 15.481 254.941 15.6684 255.149 15.9406Z" fill="#00DCC0"/>
<path d="M255.149 15.9405C252.59 14.9163 249.969 14.0526 247.303 13.3545C245.579 12.9775 243.868 12.5365 242.115 12.3125C241.882 12.1435 241.506 12.3815 241.335 12.0375C240.606 11.8375 239.875 11.6375 239.149 11.4265C238.376 11.2413 237.691 10.797 237.206 10.1676C236.721 9.53819 236.466 8.76173 236.485 7.96751C236.423 6.63651 236.464 5.30151 236.452 3.96751C236.452 3.69851 236.481 3.52149 236.824 3.52849C241.947 3.62849 247.075 3.31251 252.193 3.71751C253.106 3.79544 254.002 4.01332 254.849 4.36351C258.019 5.65251 258.863 8.4385 258.515 11.3325C258.398 12.3253 258.026 13.271 257.436 14.0783C256.847 14.8855 256.059 15.5269 255.149 15.9405Z" fill="#125EEC"/>
<path d="M315.871 7.43951C316.913 7.45988 317.939 7.7078 318.875 8.16589C319.812 8.62397 320.638 9.28119 321.294 10.0915C321.799 10.7581 322.154 11.526 322.334 12.3425C322.434 12.7365 322.32 12.8915 321.914 12.9765C321.044 13.1493 320.185 13.3703 319.339 13.6385C318.863 13.7945 318.729 13.6385 318.547 13.2385C318.322 12.7599 318.003 12.3313 317.609 11.978C317.215 11.6248 316.755 11.3541 316.254 11.1819C315.754 11.0098 315.224 10.9398 314.697 10.9759C314.169 11.0121 313.654 11.1538 313.182 11.3925C312.871 11.5364 312.61 11.7693 312.432 12.0616C312.254 12.354 312.167 12.6926 312.182 13.0345C312.187 13.3639 312.295 13.6832 312.491 13.9482C312.687 14.2131 312.961 14.4104 313.274 14.5125C315.274 15.4225 317.433 15.8965 319.401 16.8655C320.703 17.3701 321.792 18.3071 322.486 19.5195C323.119 20.8883 323.194 22.4504 322.693 23.8732C322.192 25.296 321.156 26.4672 319.805 27.1375C318.331 27.953 316.649 28.317 314.97 28.1842C313.291 28.0514 311.688 27.4276 310.361 26.3905C309.618 25.8069 309.003 25.0762 308.556 24.244C308.108 23.4118 307.838 22.4962 307.761 21.5545C307.715 21.2215 307.774 21.0285 308.161 20.9545C309.186 20.7545 310.211 20.5545 311.217 20.2775C311.676 20.1535 311.745 20.3315 311.811 20.6955C311.883 21.1321 311.994 21.5614 312.142 21.9785C312.959 24.1675 314.29 24.9235 316.592 24.5125C317.057 24.4463 317.511 24.3167 317.941 24.1275C318.312 23.9906 318.631 23.7429 318.856 23.418C319.081 23.0931 319.201 22.7067 319.199 22.3115C319.221 21.9044 319.125 21.4996 318.921 21.1466C318.717 20.7936 318.414 20.5079 318.05 20.3245C316.784 19.6475 315.443 19.1206 314.056 18.7545C312.781 18.3732 311.572 17.7982 310.473 17.0496C307.698 15.2586 307.773 10.9386 310.453 8.91155C311.79 7.89055 313.256 7.40451 315.871 7.43951Z" fill="#101419"/>
<path d="M361.754 14.2385C363.675 12.2875 365.799 11.7825 368.16 12.7925C369.078 13.1683 369.857 13.8183 370.39 14.6538C370.924 15.4892 371.187 16.4691 371.142 17.4595C371.2 20.6995 371.149 23.9425 371.164 27.1835C371.164 27.5925 371.058 27.7285 370.641 27.7145C369.779 27.6845 368.914 27.6785 368.053 27.7145C367.585 27.7355 367.5 27.5615 367.502 27.1345C367.52 24.4165 367.512 21.6975 367.511 18.9785C367.511 18.7695 367.519 18.5595 367.502 18.3525C367.348 16.5745 366.495 15.6655 365.038 15.7205C362.951 15.7995 361.938 16.7315 361.929 18.6205C361.917 21.4205 361.913 24.2145 361.94 27.0115C361.94 27.5365 361.849 27.7485 361.272 27.7115C360.412 27.6585 359.545 27.6765 358.683 27.7115C358.262 27.7265 358.16 27.5805 358.161 27.1755C358.175 22.5488 358.175 17.9221 358.161 13.2955C358.161 12.8955 358.261 12.7405 358.685 12.7565C359.442 12.7997 360.202 12.7977 360.959 12.7505C361.607 12.6975 361.877 12.8855 361.759 13.5505C361.74 13.7794 361.739 14.0094 361.754 14.2385Z" fill="#101419"/>
<path d="M344.982 14.2625C346.082 12.6885 347.342 12.0625 349.031 12.4495C349.426 12.5385 349.54 12.6905 349.462 13.0915C349.297 13.9355 349.156 14.7915 349.051 15.6405C349.004 16.0335 348.917 16.1615 348.478 16.0965C346.378 15.7875 345.311 16.6525 345.254 18.8095C345.183 21.5245 345.193 24.2425 345.22 26.9585C345.226 27.5915 345.039 27.7585 344.437 27.7185C343.604 27.6675 342.764 27.6915 341.928 27.7125C341.588 27.7215 341.484 27.6205 341.484 27.2735C341.494 22.5455 341.494 17.8172 341.484 13.0885C341.484 12.7185 341.584 12.5885 341.963 12.6005C342.746 12.6275 343.533 12.6465 344.314 12.6005C344.873 12.5645 345.067 12.7455 344.989 13.2905C344.967 13.6141 344.965 13.9387 344.982 14.2625Z" fill="#101419"/>
<path d="M288.893 20.3135C288.893 22.5625 288.879 24.8135 288.904 27.0605C288.909 27.5505 288.812 27.7495 288.272 27.7185C287.412 27.6695 286.546 27.6866 285.684 27.7185C285.274 27.7315 285.152 27.6046 285.153 27.1896C285.167 22.5609 285.167 17.9325 285.153 13.3045C285.153 12.9045 285.253 12.7505 285.677 12.7635C286.566 12.7905 287.457 12.7965 288.344 12.7635C288.803 12.7455 288.904 12.9095 288.901 13.3385C288.883 15.6585 288.893 17.9855 288.893 20.3135Z" fill="#101419"/>
<path d="M354.886 20.2646C354.886 22.5136 354.869 24.7646 354.898 27.0126C354.904 27.5326 354.813 27.7566 354.231 27.7186C353.397 27.6646 352.558 27.6866 351.721 27.7126C351.328 27.7246 351.179 27.6306 351.182 27.2016C351.202 22.5723 351.208 17.9426 351.198 13.3126C351.198 12.8586 351.342 12.7406 351.775 12.7566C352.611 12.7886 353.45 12.7946 354.285 12.7566C354.766 12.7336 354.903 12.8686 354.897 13.3566C354.869 15.6606 354.886 17.9626 354.886 20.2646Z" fill="#101419"/>
<path d="M287.065 10.4655C285.165 10.4655 285.165 10.4655 285.165 8.57652C285.165 7.01152 285.165 7.00647 286.771 7.01347C287.446 7.01347 288.318 6.79348 288.744 7.12748C289.197 7.48448 288.878 8.39652 288.89 9.06352C288.914 10.4635 288.897 10.4635 287.462 10.4635L287.065 10.4655Z" fill="#11151A"/>
<path d="M353.11 7.01147C354.886 7.01147 354.886 7.01147 354.885 8.79547C354.885 10.4655 354.885 10.4805 353.247 10.4595C352.578 10.4505 351.688 10.7595 351.303 10.3185C350.976 9.94448 351.203 9.07747 351.203 8.42847C351.203 7.01247 351.203 7.01245 352.64 7.01245L353.11 7.01147Z" fill="#101419"/>
<path d="M241.334 12.0375C241.584 12.1555 241.897 12.1015 242.115 12.3125H239.898C240.33 11.9775 240.894 12.3365 241.334 12.0375Z" fill="#59D4DC"/>
<path d="M279.927 16.9485C280.422 16.6105 280.861 16.1964 281.227 15.7215C281.696 15.0386 281.974 14.2418 282.029 13.4148C282.085 12.5879 281.917 11.7612 281.543 11.0215C281.182 10.1568 280.586 9.41035 279.823 8.86659C279.059 8.32284 278.159 8.00347 277.224 7.94454C274.224 7.68554 271.214 7.8965 268.209 7.8365C267.692 7.8265 267.691 8.0785 267.692 8.4565C267.7 11.6718 267.702 14.8869 267.697 18.1015C267.697 21.1075 267.699 24.1135 267.702 27.1195C267.702 27.3645 267.542 27.7195 268.057 27.7115C271.295 27.6305 274.545 27.9615 277.771 27.5285C278.959 27.3812 280.071 26.8619 280.946 26.0449C281.822 25.2278 282.416 24.1549 282.645 22.9795C283.172 20.2785 282.346 18.4405 279.927 16.9485ZM272.156 11.3485C273.411 11.3685 274.668 11.3355 275.923 11.3655C276.225 11.3394 276.529 11.3787 276.815 11.4806C277.1 11.5825 277.361 11.7447 277.578 11.9562C277.795 12.1677 277.965 12.4234 278.075 12.7061C278.184 12.9888 278.231 13.2918 278.214 13.5945C278.229 13.8962 278.18 14.1978 278.069 14.4787C277.957 14.7595 277.787 15.013 277.568 15.2219C277.35 15.4307 277.089 15.59 276.804 15.6888C276.518 15.7876 276.215 15.8237 275.914 15.7945C275.314 15.8125 274.714 15.7945 274.114 15.7945C273.46 15.7945 272.805 15.7735 272.153 15.8025C271.753 15.8205 271.604 15.7205 271.615 15.2905C271.645 14.1405 271.647 12.9905 271.615 11.8395C271.594 11.3985 271.779 11.3415 272.156 11.3475V11.3485ZM276.77 23.9635C275.992 24.0185 275.207 23.9735 274.424 23.9735V24.0145C273.667 24.0145 272.91 24.0005 272.154 24.0205C271.782 24.0305 271.595 23.9695 271.606 23.5205C271.637 22.1385 271.628 20.7555 271.606 19.3735C271.606 19.0075 271.697 18.8735 272.082 18.8835C273.621 18.9085 275.162 18.8685 276.7 18.9155C277.008 18.9134 277.313 18.9732 277.597 19.0911C277.881 19.2091 278.139 19.383 278.355 19.6024C278.571 19.8219 278.74 20.0824 278.854 20.3685C278.967 20.6547 279.022 20.9608 279.015 21.2685C279.04 22.9595 278.318 23.8545 276.77 23.9675V23.9635Z" fill="#101419"/>
<path d="M387.531 12.8945C387.131 12.5535 386.244 12.7735 385.571 12.7695C384.183 12.7605 384.184 12.7695 383.983 14.0855C383.694 13.7927 383.389 13.5165 383.069 13.2585C381.933 12.5532 380.596 12.2407 379.265 12.369C377.934 12.4973 376.683 13.0593 375.702 13.9685C372.582 16.8965 372.638 22.0135 374.298 24.8305C376.408 28.4105 381.235 29.3005 383.904 26.3195C383.904 26.9895 383.904 27.5795 383.904 28.1705C383.95 28.583 383.906 29.0007 383.772 29.3937C383.638 29.7866 383.418 30.145 383.129 30.443C382.84 30.741 382.489 30.9712 382.1 31.1171C381.712 31.2629 381.295 31.3208 380.882 31.2865C380.077 31.3158 379.283 31.0985 378.605 30.6639C377.927 30.2292 377.399 29.5979 377.09 28.8545C376.584 29.1945 376.128 29.4975 375.674 29.8045C374.159 30.8305 374.144 30.9905 375.428 32.3585C375.464 32.3965 375.504 32.4315 375.541 32.4685C376.284 33.1685 377.163 33.7069 378.125 34.0499C379.086 34.393 380.108 34.5331 381.127 34.4615C381.991 34.4892 382.852 34.3396 383.656 34.0218C384.46 33.7041 385.191 33.2249 385.803 32.614C386.416 32.003 386.896 31.2731 387.215 30.4694C387.534 29.6656 387.685 28.805 387.659 27.9405C387.659 23.5752 387.658 19.2085 387.654 14.8405C387.653 14.1705 387.952 13.2555 387.531 12.8945ZM383.938 18.9195C383.921 19.3625 383.938 19.8075 383.938 20.2515C383.938 20.6955 383.943 21.1395 383.938 21.5835C383.991 22.2268 383.831 22.8698 383.484 23.4138C383.137 23.9579 382.62 24.3729 382.014 24.5955C381.385 24.8622 380.692 24.9381 380.02 24.8136C379.348 24.6891 378.728 24.3699 378.237 23.8955C376.447 22.2675 376.457 17.8445 378.445 16.3805C378.954 15.9657 379.569 15.7024 380.221 15.6209C380.873 15.5394 381.534 15.6429 382.13 15.9195C382.717 16.1541 383.211 16.5741 383.538 17.1157C383.864 17.6573 384.005 18.2907 383.938 18.9195Z" fill="#101419"/>
<path d="M305.582 13.2145C305.582 12.7965 305.403 12.7505 305.066 12.7615C304.491 12.7805 303.916 12.7665 303.34 12.7665C302.102 12.7665 302.103 12.7665 302.035 13.9965C302.035 14.0245 301.964 14.0485 301.923 14.0765C301.634 13.7794 301.328 13.4996 301.006 13.2385C298.901 11.7135 295.493 12.1625 293.53 14.0995C290.644 16.9485 290.537 21.8365 292.229 24.7805C294.383 28.5215 299.279 29.2355 301.883 26.2805C301.883 27.1495 301.911 27.8516 301.877 28.5496C301.883 29.145 301.686 29.7247 301.318 30.1927C300.95 30.6608 300.433 30.9892 299.852 31.1235C299.163 31.3454 298.426 31.3678 297.725 31.188C297.023 31.0082 296.387 30.6336 295.89 30.1075C295.531 29.7455 295.425 28.9716 294.932 29.0076C294.455 29.0446 294.012 29.5525 293.559 29.8605C292.048 30.8855 292.034 31.0606 293.318 32.3956C293.354 32.4336 293.392 32.4685 293.43 32.5055C294.248 33.2625 295.224 33.829 296.287 34.1642C297.35 34.4995 298.474 34.5952 299.579 34.4445C301.153 34.3952 302.649 33.744 303.757 32.625C304.866 31.506 305.503 30.0044 305.538 28.4296C305.639 23.3596 305.566 18.2865 305.582 13.2145ZM301.917 20.1796H301.908C301.908 20.7276 301.938 21.2795 301.902 21.8245C301.904 22.445 301.709 23.0502 301.346 23.5533C300.983 24.0563 300.469 24.4314 299.88 24.6246C299.271 24.8778 298.602 24.9464 297.955 24.822C297.308 24.6975 296.712 24.3854 296.241 23.9246C294.341 22.1246 294.369 18.1445 296.291 16.4695C296.787 16.0164 297.406 15.7193 298.07 15.6157C298.733 15.512 299.413 15.6062 300.024 15.8865C300.631 16.1132 301.146 16.5339 301.49 17.0834C301.833 17.6329 301.986 18.2805 301.924 18.9255C301.908 19.3435 301.917 19.7616 301.917 20.1796Z" fill="#101419"/>
<path d="M338.683 16.9635C338.348 15.7819 337.677 14.7226 336.753 13.9132C335.829 13.1038 334.691 12.5788 333.475 12.4015C332.538 12.2168 331.568 12.2823 330.664 12.5915C329.76 12.9006 328.954 13.4425 328.325 14.1625C328.311 13.9591 328.311 13.7549 328.325 13.5515C328.447 12.8885 328.176 12.6935 327.526 12.7515C326.847 12.8054 326.165 12.8054 325.487 12.7515C324.949 12.7145 324.786 12.8585 324.786 13.4265C324.808 20.0705 324.808 26.7145 324.786 33.3585C324.786 33.8865 324.887 34.1095 325.466 34.0685C326.198 34.0044 326.933 34.0044 327.665 34.0685C328.397 34.1455 328.512 33.8575 328.501 33.2025C328.46 30.9415 328.485 28.6795 328.485 26.3845C328.605 26.4325 328.664 26.4375 328.69 26.4695C330.68 28.9355 335.331 28.6445 337.475 25.7255C338.407 24.489 339.007 23.0349 339.218 21.5015C339.429 19.968 339.245 18.4059 338.683 16.9635ZM334.122 23.9735C333.632 24.4338 333.015 24.7369 332.351 24.8438C331.687 24.9507 331.007 24.8566 330.397 24.5735C329.817 24.3548 329.321 23.9583 328.98 23.441C328.639 22.9236 328.469 22.3117 328.496 21.6925C328.482 21.1925 328.496 20.7005 328.496 20.2035C328.496 19.7855 328.496 19.3675 328.496 18.9495C328.444 18.2662 328.62 17.5848 328.998 17.0128C329.375 16.4408 329.932 16.0108 330.581 15.7905C331.253 15.5635 331.976 15.5361 332.663 15.7117C333.35 15.8872 333.971 16.2581 334.451 16.7795C336.049 18.5865 335.902 22.3535 334.122 23.9725V23.9735Z" fill="#101419"/>
<path d="M502.868 33.5406H483.692C482.384 33.5366 481.131 33.0154 480.207 32.0908C479.282 31.1662 478.761 29.9132 478.757 28.6056V9.42961C478.761 8.12216 479.282 6.86947 480.207 5.94505C481.131 5.02063 482.384 4.49956 483.692 4.49561H502.868C504.175 4.49956 505.428 5.02067 506.352 5.94511C507.277 6.86956 507.798 8.12225 507.802 9.42961V28.6056C507.803 29.2538 507.676 29.8958 507.428 30.4949C507.18 31.0939 506.817 31.6382 506.359 32.0965C505.9 32.5549 505.356 32.9183 504.757 33.1659C504.158 33.4135 503.516 33.5405 502.868 33.5396" fill="#8989A2"/>
<path d="M502.867 4.47867H493.279V19.0007H507.801V9.41266C507.8 8.10414 507.28 6.84952 506.354 5.92426C505.429 4.99899 504.174 4.47872 502.866 4.47766" fill="#A0A0BD"/>
<path d="M493.279 33.5407H502.867C504.175 33.5368 505.428 33.0155 506.352 32.0909C507.277 31.1663 507.798 29.9133 507.802 28.6057V19.0177H493.28L493.279 33.5407Z" fill="#BCBCD8"/>
<path d="M533.267 23.0826C533.32 23.0835 533.372 23.0951 533.42 23.1168C533.469 23.1384 533.512 23.1697 533.548 23.2087L534.285 24.0137C533.717 24.6734 533.009 25.1999 532.215 25.5557C531.288 25.9471 530.287 26.1356 529.282 26.1086C528.347 26.1217 527.421 25.9451 526.557 25.5897C525.766 25.2599 525.055 24.7636 524.472 24.1347C523.88 23.4836 523.425 22.7201 523.134 21.8897C522.807 20.9649 522.646 19.9901 522.658 19.0097C522.646 18.0262 522.819 17.0494 523.168 16.1297C523.486 15.29 523.973 14.5243 524.598 13.8797C525.224 13.245 525.975 12.7481 526.804 12.4207C527.706 12.0662 528.67 11.8899 529.64 11.9016C530.544 11.8796 531.443 12.0412 532.283 12.3767C533.012 12.6861 533.68 13.123 534.257 13.6667L533.646 14.5297C533.604 14.5913 533.551 14.6454 533.491 14.6897C533.415 14.7364 533.327 14.7585 533.239 14.7527C533.142 14.7489 533.05 14.7169 532.972 14.6607C532.878 14.5987 532.766 14.5237 532.638 14.4327C532.51 14.3417 532.356 14.2457 532.181 14.1417C531.983 14.0271 531.775 13.9297 531.561 13.8507C531.29 13.7514 531.011 13.6751 530.727 13.6227C530.366 13.5574 529.999 13.5266 529.632 13.5307C528.932 13.5221 528.238 13.6523 527.59 13.9137C526.985 14.1592 526.439 14.5311 525.99 15.0047C525.528 15.5026 525.173 16.0901 524.948 16.7307C524.69 17.4624 524.563 18.2339 524.574 19.0097C524.561 19.7983 524.688 20.583 524.948 21.3277C525.171 21.9629 525.517 22.5477 525.967 23.0487C526.391 23.5136 526.912 23.8792 527.494 24.1197C528.096 24.3682 528.742 24.4937 529.394 24.4887C529.767 24.4912 530.139 24.4668 530.509 24.4157C530.821 24.3715 531.129 24.2951 531.426 24.1877C531.701 24.087 531.965 23.9551 532.211 23.7947C532.469 23.6246 532.714 23.4351 532.943 23.2277C533.029 23.1408 533.145 23.0892 533.267 23.0826Z" fill="#8989A2"/>
<path d="M538.406 11.6687V25.9527H536.68V11.6687H538.406Z" fill="#8989A2"/>
<path d="M545.341 15.9747C545.898 15.9704 546.451 16.0722 546.97 16.2747C547.456 16.4642 547.896 16.755 548.261 17.1277C548.636 17.5225 548.926 17.9915 549.11 18.5047C549.32 19.1042 549.421 19.7365 549.409 20.3717C549.426 20.5571 549.396 20.7437 549.323 20.9147C549.284 20.964 549.233 21.0024 549.176 21.0262C549.118 21.0501 549.055 21.0585 548.992 21.0507H542.456C542.457 21.6 542.542 22.1459 542.708 22.6697C542.843 23.0917 543.06 23.4823 543.348 23.8187C543.613 24.1215 543.946 24.3576 544.319 24.5077C544.72 24.6646 545.148 24.742 545.578 24.7357C545.958 24.7435 546.336 24.6929 546.699 24.5857C546.978 24.4998 547.248 24.3911 547.509 24.2607C547.703 24.1625 547.893 24.054 548.076 23.9357C548.19 23.8495 548.326 23.7975 548.469 23.7857C548.533 23.783 548.598 23.7967 548.656 23.8255C548.713 23.8544 548.763 23.8975 548.8 23.9507L549.283 24.5807C549.065 24.8441 548.807 25.0716 548.518 25.2547C548.218 25.4466 547.898 25.6043 547.564 25.7247C547.222 25.8481 546.869 25.9404 546.511 26.0007C546.155 26.0616 545.795 26.0924 545.435 26.0927C544.793 26.0995 544.156 25.9827 543.558 25.7487C542.996 25.5256 542.489 25.1815 542.074 24.7407C541.639 24.2661 541.308 23.7063 541.1 23.0967C540.856 22.3722 540.739 21.6112 540.752 20.8467C540.746 20.1934 540.853 19.544 541.067 18.9267C541.262 18.3556 541.571 17.8295 541.973 17.3797C542.375 16.9374 542.868 16.5868 543.418 16.3517C544.026 16.0937 544.68 15.9653 545.341 15.9747ZM545.38 17.2457C545.02 17.2258 544.659 17.2796 544.321 17.4037C543.983 17.5279 543.673 17.7198 543.411 17.9677C542.901 18.5177 542.588 19.2208 542.519 19.9677H547.863C547.867 19.5946 547.811 19.2233 547.698 18.8677C547.596 18.5502 547.431 18.2567 547.213 18.0047C546.998 17.7614 546.73 17.5694 546.431 17.4427C546.098 17.3058 545.74 17.2387 545.38 17.2457Z" fill="#8989A2"/>
<path d="M558.827 25.9527H558.06C557.921 25.9584 557.782 25.9317 557.655 25.8747C557.598 25.8393 557.55 25.791 557.515 25.7336C557.48 25.6763 557.459 25.6116 557.454 25.5447L557.262 24.6327C557.003 24.8654 556.751 25.074 556.505 25.2587C556.263 25.4403 556.003 25.5962 555.728 25.7237C555.451 25.8519 555.161 25.9479 554.862 26.0097C554.525 26.0782 554.182 26.1117 553.839 26.1097C553.476 26.1121 553.114 26.0578 552.767 25.9487C552.448 25.8491 552.153 25.685 551.9 25.4667C551.646 25.2427 551.446 24.9654 551.312 24.6547C551.159 24.2866 551.085 23.8904 551.095 23.4917C551.096 23.0948 551.207 22.7061 551.414 22.3677C551.671 21.9656 552.027 21.6355 552.447 21.4087C553.032 21.0888 553.66 20.8576 554.313 20.7227C555.241 20.5283 556.188 20.4385 557.136 20.4547V19.6837C557.18 19.0637 557.006 18.4478 556.645 17.9417C556.465 17.7391 556.24 17.5806 555.989 17.4783C555.738 17.3761 555.466 17.3327 555.196 17.3517C554.835 17.3421 554.475 17.3962 554.134 17.5117C553.873 17.6052 553.622 17.7255 553.387 17.8707C553.177 18.004 552.996 18.1237 552.844 18.2297C552.714 18.3285 552.556 18.3845 552.393 18.3897C552.284 18.3923 552.177 18.36 552.088 18.2977C552.002 18.2386 551.931 18.1606 551.88 18.0697L551.568 17.5167C552.074 17.0182 552.669 16.6201 553.324 16.3437C553.986 16.0783 554.695 15.9464 555.409 15.9557C555.91 15.9465 556.408 16.0387 556.872 16.2267C557.283 16.3962 557.651 16.6544 557.95 16.9827C558.249 17.3229 558.474 17.7227 558.608 18.1557C558.762 18.6451 558.837 19.1557 558.831 19.6687L558.827 25.9527ZM554.348 24.8957C554.628 24.8985 554.908 24.8676 555.181 24.8037C555.429 24.7444 555.668 24.6565 555.894 24.5417C556.121 24.4262 556.336 24.2882 556.535 24.1297C556.749 23.9601 556.949 23.7753 557.136 23.5767V21.5497C556.457 21.5405 555.779 21.591 555.109 21.7007C554.642 21.7752 554.185 21.9079 553.751 22.0957C553.452 22.2193 553.19 22.4177 552.99 22.6717C552.833 22.8868 552.75 23.1466 552.752 23.4127C552.747 23.6434 552.79 23.8727 552.879 24.0857C552.955 24.2642 553.071 24.4226 553.219 24.5487C553.364 24.6713 553.535 24.761 553.719 24.8117C553.923 24.8688 554.134 24.8971 554.347 24.8957H554.348Z" fill="#8989A2"/>
<path d="M561.447 25.9527V16.1297H562.436C562.574 16.115 562.712 16.1532 562.823 16.2367C562.909 16.3417 562.96 16.4706 562.969 16.6057L563.086 18.1377C563.374 17.5165 563.8 16.9693 564.332 16.5377C564.829 16.152 565.443 15.9484 566.073 15.9607C566.321 15.9578 566.569 15.9887 566.81 16.0527C567.024 16.1119 567.229 16.1983 567.421 16.3097L567.198 17.5997C567.185 17.6696 567.149 17.7327 567.094 17.7773C567.038 17.8218 566.969 17.8447 566.898 17.8417C566.755 17.8311 566.615 17.8001 566.481 17.7497C566.225 17.6795 565.96 17.6485 565.695 17.6577C565.145 17.6397 564.608 17.8264 564.188 18.1817C563.735 18.6022 563.388 19.1237 563.175 19.7037V25.9587L561.447 25.9527Z" fill="#8989A2"/>
<path d="M569.322 25.9527V11.6687H571.057V17.5457C571.451 17.0845 571.925 16.6986 572.457 16.4067C573.013 16.1116 573.636 15.9629 574.266 15.9747C574.797 15.9669 575.323 16.0762 575.807 16.2947C576.271 16.5116 576.674 16.8397 576.981 17.2497C577.327 17.7213 577.58 18.2544 577.728 18.8207C577.912 19.5248 578.001 20.2508 577.99 20.9787C577.996 21.6636 577.898 22.3453 577.699 23.0007C577.524 23.5885 577.239 24.1378 576.86 24.6197C576.498 25.0723 576.042 25.4396 575.522 25.6957C574.967 25.9638 574.358 26.0984 573.742 26.0887C573.181 26.1057 572.626 25.9786 572.129 25.7197C571.673 25.4635 571.278 25.113 570.969 24.6917L570.882 25.5837C570.87 25.691 570.817 25.7895 570.734 25.8584C570.651 25.9273 570.545 25.9611 570.437 25.9527H569.322ZM573.705 17.3527C573.185 17.3414 572.673 17.4758 572.226 17.7407C571.77 18.0303 571.374 18.4036 571.058 18.8407V23.5927C571.319 23.9762 571.674 24.2861 572.09 24.4927C572.488 24.6714 572.92 24.7608 573.356 24.7547C573.761 24.7766 574.166 24.6988 574.535 24.5282C574.903 24.3575 575.224 24.0992 575.47 23.7757C576.011 22.9487 576.269 21.9689 576.207 20.9827C576.216 20.4282 576.159 19.8746 576.037 19.3337C575.948 18.929 575.781 18.5453 575.547 18.2037C575.349 17.9214 575.077 17.6985 574.762 17.5587C574.426 17.4163 574.065 17.3458 573.701 17.3517L573.705 17.3527Z" fill="#8989A2"/>
<path d="M582.412 13.0507C582.414 13.2129 582.38 13.3734 582.312 13.5207C582.244 13.6647 582.153 13.796 582.041 13.9087C581.928 14.0219 581.794 14.1125 581.648 14.1757C581.498 14.2418 581.336 14.2758 581.172 14.2757C581.01 14.2764 580.85 14.2423 580.702 14.1757C580.557 14.1119 580.425 14.0213 580.314 13.9087C580.201 13.7972 580.11 13.6656 580.046 13.5207C579.98 13.3729 579.945 13.2127 579.946 13.0507C579.946 12.8856 579.98 12.7223 580.046 12.5707C580.108 12.4212 580.199 12.2854 580.314 12.1707C580.425 12.0583 580.557 11.9677 580.702 11.9037C580.85 11.8373 581.01 11.8032 581.172 11.8037C581.336 11.8037 581.498 11.8378 581.648 11.9037C581.794 11.9671 581.928 12.0577 582.041 12.1707C582.155 12.2866 582.246 12.4221 582.312 12.5707C582.379 12.7217 582.413 12.8854 582.412 13.0507ZM582.025 16.1347V25.9577H580.297V16.1347H582.025Z" fill="#8989A2"/>
<path d="M588.046 26.1077C587.719 26.1291 587.391 26.0824 587.083 25.9705C586.775 25.8586 586.494 25.684 586.257 25.4577C585.809 24.9407 585.584 24.2678 585.631 23.5857V17.5737H584.448C584.352 17.5766 584.258 17.5438 584.185 17.4817C584.148 17.4447 584.119 17.3999 584.1 17.3505C584.082 17.3011 584.075 17.2482 584.079 17.1957V16.5077L585.688 16.3077L586.089 13.2727C586.099 13.1802 586.144 13.0952 586.215 13.0347C586.291 12.9716 586.387 12.9389 586.486 12.9427H587.36V16.3277H590.173V17.5787H587.361V23.4787C587.347 23.6444 587.367 23.8112 587.418 23.9693C587.47 24.1274 587.552 24.2737 587.66 24.3997C587.763 24.5 587.884 24.5783 588.017 24.6299C588.151 24.6815 588.293 24.7052 588.436 24.6997C588.596 24.7031 588.755 24.6783 588.906 24.6267C589.025 24.5844 589.14 24.5309 589.249 24.4667C589.347 24.408 589.429 24.3547 589.496 24.3067C589.548 24.2647 589.611 24.2392 589.677 24.2337C589.728 24.238 589.777 24.2555 589.82 24.2844C589.862 24.3133 589.896 24.3526 589.919 24.3987L590.419 25.2227C590.107 25.51 589.742 25.7326 589.344 25.8777C588.928 26.0323 588.489 26.1102 588.046 26.1077Z" fill="#8989A2"/>
<path fill-rule="evenodd" clip-rule="evenodd" d="M702.563 20.8213C702.483 21.0365 702.462 21.2689 702.501 21.4949C702.541 21.721 702.639 21.9326 702.787 22.1083C702.955 22.2372 703.15 22.3276 703.357 22.3733C703.565 22.4189 703.78 22.4185 703.987 22.3723C704.814 22.1917 705.671 22.1976 706.496 22.3893C706.707 22.4809 706.895 22.6175 707.048 22.7896C707.201 22.9617 707.314 23.1651 707.38 23.3856C707.446 23.6061 707.464 23.8384 707.43 24.0662C707.397 24.2939 707.315 24.5117 707.189 24.7043C706.86 25.2465 706.452 25.7365 705.979 26.1583C704.473 27.9077 703.151 29.8074 702.035 31.8273C701.542 32.6273 700.889 33.6933 699.851 33.7993C699.382 33.8668 698.906 33.7551 698.517 33.4864C698.127 33.2178 697.854 32.812 697.751 32.3503C697.61 31.3713 698.557 30.4373 699.203 29.7943C699.657 29.3403 700.081 28.8723 700.503 28.3843C700.996 27.8203 701.462 27.2583 701.903 26.6593C702.418 25.9593 703.274 24.8133 702.642 23.9483C702.184 23.3123 701.21 23.4233 700.574 23.6773C699.763 24.0601 699.067 24.6482 698.555 25.3833C697.996 26.208 697.487 27.0648 697.029 27.9493C696.67 28.6799 696.153 29.3214 695.516 29.8273C695.189 30.0388 694.795 30.1196 694.412 30.0534C694.029 29.9872 693.684 29.779 693.448 29.4703C693.265 29.0886 693.191 28.6637 693.234 28.2426C693.277 27.8214 693.437 27.4206 693.694 27.0843C694.091 26.4967 694.555 25.9574 695.077 25.4773C695.858 24.6773 696.65 23.8823 697.409 23.0593C697.789 22.6373 698.166 22.2213 698.509 21.7873C698.82 21.3873 699.288 20.8633 699.15 20.3083C698.889 19.2633 697.237 19.6423 696.562 19.9733C695.611 20.5185 694.769 21.2337 694.077 22.0833C693.323 22.9538 692.635 23.879 692.019 24.8513C690.713 26.7983 689.507 28.8253 688.159 30.7423C687.597 31.5423 686.927 32.5093 685.899 32.7143C685.651 32.7664 685.395 32.7655 685.148 32.7117C684.901 32.6578 684.668 32.5522 684.465 32.4018C684.262 32.2514 684.093 32.0596 683.969 31.839C683.845 31.6185 683.769 31.3742 683.747 31.1223C683.74 30.2124 684.074 29.3329 684.684 28.6573C685.15 28.0506 685.627 27.4533 686.114 26.8653C687.414 25.2923 688.724 23.7173 690.058 22.1823C691.189 20.8663 692.276 19.5203 693.339 18.1373C693.939 17.3433 694.552 16.5623 695.104 15.7373C695.577 14.9221 696.186 14.1936 696.904 13.5833C697.209 13.3209 697.589 13.1612 697.991 13.1268C698.392 13.0923 698.794 13.1849 699.14 13.3913C699.973 14.0373 699.562 15.2353 699.216 16.0193C698.87 16.8033 698.538 17.7893 699.532 18.1663C700.232 18.4373 701.011 18.2203 701.696 18.5663C702.08 18.7835 702.377 19.1272 702.537 19.5389C702.696 19.9505 702.708 20.4048 702.571 20.8243" fill="#8989A2"/>
<path fill-rule="evenodd" clip-rule="evenodd" d="M688.698 20.8853C690.322 18.5261 692.083 16.2635 693.971 14.1093C695.566 12.2923 697.249 10.5523 698.901 8.78031C699.558 8.15921 699.961 7.31595 700.032 6.41431C700.047 6.194 700.016 5.9729 699.941 5.76529C699.866 5.55768 699.748 5.3682 699.594 5.20909C699.441 5.04998 699.256 4.9248 699.052 4.84164C698.847 4.75848 698.627 4.71919 698.407 4.72631C697.941 4.80651 697.499 4.98695 697.11 5.25511C696.722 5.52327 696.396 5.87274 696.156 6.27931C695.518 7.09631 694.971 7.97831 694.398 8.83631C693.851 9.64731 693.235 10.4043 692.653 11.1903C692.012 12.0653 691.391 12.9603 690.681 13.7733C690.129 14.3973 689.421 15.5163 688.463 15.4983C688.292 15.491 688.127 15.4325 687.99 15.3305C687.853 15.2285 687.75 15.0877 687.694 14.9263C687.624 14.7173 687.61 14.4937 687.654 14.2777C687.697 14.0617 687.795 13.8607 687.94 13.6943C688.388 13.0653 688.887 12.474 689.432 11.9263C690 11.457 690.483 10.8918 690.857 10.2563C690.993 9.93842 691.038 9.58903 690.987 9.24705C690.936 8.90506 690.791 8.5839 690.569 8.31931C690.431 8.15204 690.249 8.0271 690.044 7.95896C689.838 7.89083 689.618 7.88228 689.408 7.93431C688.915 8.07731 688.575 8.57231 688.176 8.84631C687.91 9.02631 687.355 9.18931 687.19 8.79231C687.025 8.39531 687.518 8.00631 687.735 7.78431C688.335 7.16531 689.398 6.52631 689.459 5.57831C689.464 5.35415 689.414 5.1321 689.312 4.9324C689.21 4.73271 689.06 4.5617 688.875 4.43496C688.69 4.30823 688.476 4.22979 688.253 4.20679C688.03 4.1838 687.805 4.21698 687.598 4.30331C686.728 4.67071 685.998 5.30624 685.515 6.11731C685.049 6.77831 684.238 7.93631 684.546 8.78931C684.621 8.97429 684.747 9.13456 684.909 9.25218C685.07 9.3698 685.261 9.44013 685.461 9.45531C685.885 9.52231 686.472 9.29031 686.844 9.53931C687.689 10.1063 686.654 11.4643 686.272 12.0043C685.678 12.8292 685.018 13.6041 684.298 14.3213C683.544 15.0803 682.706 15.8003 682.028 16.6213C681.715 16.9233 681.51 17.3192 681.443 17.7487C681.376 18.1781 681.452 18.6176 681.658 19.0003C681.794 19.1836 681.972 19.3327 682.176 19.436C682.38 19.5393 682.605 19.5939 682.834 19.5955C683.063 19.5972 683.289 19.5458 683.494 19.4455C683.7 19.3452 683.879 19.1986 684.019 19.0173C684.569 18.1881 685.173 17.3961 685.828 16.6463C685.978 16.4886 686.167 16.3727 686.376 16.3101C686.585 16.2475 686.806 16.2403 687.019 16.2893C687.125 16.3291 687.222 16.3898 687.305 16.4676C687.387 16.5455 687.453 16.639 687.499 16.7428C687.545 16.8465 687.57 16.9584 687.572 17.0718C687.574 17.1852 687.554 17.2979 687.512 17.4033C687.114 18.3343 686.501 19.157 685.722 19.8033C685.022 20.5423 684.243 21.1783 683.56 21.9113C683.228 22.229 682.965 22.6115 682.788 23.0351C682.61 23.4586 682.522 23.9141 682.528 24.3733C682.547 24.6071 682.623 24.8326 682.748 25.0309C682.874 25.2292 683.045 25.3943 683.248 25.5123C683.66 25.6677 684.11 25.6925 684.536 25.5832C684.963 25.4738 685.345 25.2358 685.632 24.9013C686.552 23.9452 687.366 22.8924 688.06 21.7613L688.698 20.8853Z" fill="#8989A2"/>
<path fill-rule="evenodd" clip-rule="evenodd" d="M706.24 8.18336C705.747 8.69636 705.2 9.16936 704.699 9.66236C704.198 10.1554 703.467 10.9144 703.699 11.6834C703.766 11.8434 703.871 11.9846 704.006 12.0944C704.14 12.2042 704.3 12.2794 704.47 12.3132C704.64 12.3471 704.816 12.3387 704.983 12.2886C705.149 12.2386 705.3 12.1486 705.424 12.0264C705.993 11.5334 706.474 10.7524 707.339 10.9784C707.701 11.1238 707.995 11.4021 708.16 11.7566C708.325 12.1111 708.348 12.5152 708.226 12.8864C707.969 13.6187 707.509 14.2626 706.9 14.7424C706.304 15.3517 705.776 16.0243 705.327 16.7484C704.972 17.3224 704.602 17.9194 703.848 17.9804C703.505 17.9786 703.173 17.8581 702.909 17.6393C702.644 17.4205 702.464 17.117 702.399 16.7804C702.354 16.3721 702.405 15.9591 702.548 15.574C702.691 15.189 702.921 14.8426 703.222 14.5624C703.622 14.0694 704.112 13.3174 703.513 12.7624C702.862 12.1624 701.967 12.5724 701.295 12.8624C701.133 12.9575 700.954 13.0197 700.768 13.0453C700.583 13.071 700.393 13.0595 700.212 13.0116C700.031 12.9637 699.861 12.8803 699.712 12.7663C699.563 12.6523 699.438 12.5099 699.345 12.3474C699.206 12.0101 699.162 11.6413 699.218 11.2808C699.273 10.9204 699.426 10.582 699.661 10.3024C700.319 9.35536 701.197 8.57736 701.879 7.63536C702.749 6.47236 703.336 4.59136 705.093 4.72936C705.453 4.76946 705.797 4.90478 706.088 5.12144C706.38 5.3381 706.608 5.62832 706.751 5.96236C706.883 6.3426 706.905 6.75243 706.815 7.14477C706.725 7.53711 706.526 7.89605 706.241 8.18036" fill="#8989A2"/>
<path fill-rule="evenodd" clip-rule="evenodd" d="M713.606 28.0093H716.754V13.8373L722.446 28.0093H723.575L729.163 13.8403V28.0093H732.653V9.24835H728.034L723.208 22.0663L718.278 9.26034H713.606V28.0093ZM734.686 28.0093H737.861V14.2863H734.686V28.0093ZM736.234 12.0313C736.656 12.0181 737.061 11.8591 737.38 11.5812C737.699 11.3034 737.911 10.9238 737.982 10.507C738.052 10.0901 737.977 9.6617 737.767 9.29442C737.558 8.92713 737.228 8.64363 736.833 8.49202C736.438 8.34041 736.003 8.33005 735.602 8.46268C735.201 8.59532 734.857 8.86279 734.631 9.21968C734.404 9.57657 734.308 10.0009 734.359 10.4206C734.409 10.8404 734.604 11.2296 734.909 11.5223C735.084 11.6914 735.292 11.8236 735.52 11.911C735.747 11.9984 735.99 12.0394 736.234 12.0313ZM739.892 28.0093H743.067V19.9263C743.032 19.4914 743.091 19.054 743.24 18.6439C743.389 18.2338 743.625 17.8606 743.931 17.5497C744.237 17.2387 744.606 16.9972 745.014 16.8417C745.422 16.6862 745.858 16.6203 746.294 16.6483C748.182 16.6483 749.023 17.5923 749.023 19.6653V28.0093H752.198V19.3813C752.198 15.6023 750.256 14.0023 747.498 14.0023C746.601 13.9503 745.707 14.1545 744.921 14.5909C744.136 15.0273 743.491 15.6781 743.061 16.4673V14.2863H739.891L739.892 28.0093ZM760.277 28.2703C763.792 28.2703 766.126 26.6953 766.577 23.8113H763.513C763.266 25.1473 762.281 25.9113 760.365 25.9113C758.004 25.9113 756.692 24.4323 756.586 21.8443H766.633V20.9273C766.633 16.0193 763.564 14.0003 760.153 14.0003C756.246 14.0003 753.332 16.8323 753.332 21.0843V21.2943C753.273 22.2239 753.413 23.1552 753.741 24.0268C754.069 24.8983 754.579 25.6902 755.237 26.3499C755.894 27.0096 756.684 27.5221 757.555 27.8536C758.425 28.185 759.356 28.3277 760.286 28.2723L760.277 28.2703ZM756.629 19.7173C756.949 17.5923 758.236 16.3033 760.149 16.3033C762.121 16.3033 763.324 17.3513 763.482 19.7123L756.629 19.7173Z" fill="#8989A2"/>
<path fill-rule="evenodd" clip-rule="evenodd" d="M859.773 32.2267H874.973C875.909 32.265 876.838 32.0465 877.658 31.5947C878.479 31.1429 879.16 30.4751 879.629 29.6637C880.065 28.8037 880.236 27.8338 880.121 26.8765C880.006 25.9193 879.609 25.0176 878.982 24.2857L870.176 13.7187C869.948 13.4398 869.839 13.0829 869.871 12.7244C869.904 12.3659 870.075 12.0343 870.349 11.8007L879.314 4.33167L880.45 5.55766L871.927 12.9797L880.385 23.1217C881.219 24.1003 881.754 25.2975 881.928 26.5712C882.102 27.8449 881.906 29.1417 881.365 30.3077C880.79 31.4529 879.899 32.4087 878.797 33.0612C877.694 33.7137 876.427 34.0353 875.147 33.9877L859.774 34.0027C859.658 34.003 859.543 33.9806 859.436 33.9366C859.329 33.8925 859.231 33.8278 859.149 33.746C859.067 33.6643 859.002 33.5672 858.957 33.4602C858.913 33.3532 858.89 33.2385 858.89 33.1227V33.1067C858.89 32.9907 858.913 32.8759 858.957 32.7688C859.002 32.6617 859.067 32.5645 859.149 32.4826C859.231 32.4008 859.329 32.336 859.436 32.2919C859.543 32.2478 859.658 32.2253 859.774 32.2257" fill="#8989A2"/>
<path fill-rule="evenodd" clip-rule="evenodd" d="M859.583 32.2416L875.034 29.3956C875.407 29.3169 875.754 29.142 876.039 28.8882C876.324 28.6344 876.538 28.3105 876.659 27.9486C876.786 27.5888 876.815 27.2022 876.746 26.8271C876.677 26.452 876.511 26.1016 876.265 25.8106C872.619 21.4236 868.989 17.0676 865.343 12.6656C865.166 12.4554 865.04 12.2063 864.977 11.9385C864.914 11.6708 864.915 11.3919 864.98 11.1246C865.044 10.8566 865.17 10.6073 865.348 10.397C865.526 10.1866 865.751 10.021 866.005 9.91359L879.611 4.03259L880.1 5.76259L867.126 11.3916C867.082 11.4063 867.042 11.4327 867.012 11.4678C866.982 11.503 866.961 11.5458 866.953 11.5916C866.94 11.6378 866.938 11.6865 866.949 11.7333C866.96 11.78 866.984 11.8231 867.016 11.8586C870.567 16.1196 874.086 20.3496 877.639 24.6106C878.115 25.1355 878.439 25.7807 878.575 26.4764C878.712 27.172 878.655 27.8917 878.412 28.5576C878.206 29.2139 877.825 29.802 877.311 30.259C876.797 30.7161 876.168 31.0249 875.492 31.1526L863.276 33.4006L859.583 32.2416Z" fill="#8989A2"/>
<path fill-rule="evenodd" clip-rule="evenodd" d="M880.038 5.77762L864.586 8.62361C864.209 8.69515 863.859 8.86753 863.573 9.12236C863.287 9.37719 863.075 9.70494 862.961 10.0706C862.835 10.4305 862.805 10.8171 862.874 11.1921C862.944 11.5671 863.109 11.9175 863.356 12.2086C867.002 16.5956 870.632 20.9516 874.278 25.3386C874.455 25.5523 874.58 25.8042 874.643 26.0744C874.706 26.3446 874.705 26.6257 874.641 26.8956C874.574 27.1624 874.446 27.4102 874.269 27.6201C874.091 27.8301 873.868 27.9965 873.616 28.1066L860.01 33.9876L859.521 32.2576L872.495 26.6286C872.536 26.6094 872.573 26.5816 872.603 26.5471C872.633 26.5127 872.655 26.4723 872.668 26.4286C872.677 26.3822 872.677 26.3343 872.666 26.2881C872.655 26.242 872.634 26.1988 872.605 26.1616C864.905 16.9316 868.786 21.5706 861.983 13.4096C861.506 12.8847 861.182 12.2395 861.046 11.5438C860.91 10.8482 860.966 10.1285 861.21 9.46262C861.414 8.80504 861.794 8.21577 862.309 7.75844C862.824 7.3011 863.454 6.99308 864.131 6.86761L879.441 4.02161L880.038 5.77762Z" fill="#8989A2"/>
<path fill-rule="evenodd" clip-rule="evenodd" d="M879.833 5.79365H864.632C863.699 5.75797 862.773 5.97595 861.953 6.42441C861.133 6.87288 860.45 7.53508 859.977 8.34064C859.547 9.20579 859.381 10.1781 859.499 11.1369C859.617 12.0956 860.014 12.9986 860.641 13.7336L869.448 24.3006C869.677 24.5803 869.785 24.9393 869.75 25.2989C869.714 25.6585 869.537 25.9893 869.257 26.2186L860.31 33.6876L859.172 32.4616L867.68 25.0396L859.235 14.8976C858.402 13.9188 857.867 12.7216 857.694 11.4479C857.521 10.1742 857.716 8.87753 858.257 7.71165C858.83 6.56866 859.718 5.61415 860.818 4.96174C861.917 4.30932 863.18 3.98648 864.458 4.03164L879.831 4.01565C880.066 4.01403 880.293 4.1056 880.462 4.27041C880.631 4.43522 880.727 4.65992 880.731 4.89564V4.91164C880.727 5.14753 880.631 5.3725 880.462 5.53753C880.293 5.70255 880.067 5.79425 879.831 5.79264" fill="#8989A2"/>
<path fill-rule="evenodd" clip-rule="evenodd" d="M868.468 26.8797L860.309 33.6887L859.172 32.4617L866.637 25.9517L868.468 26.8797Z" fill="#8989A2"/>
<path fill-rule="evenodd" clip-rule="evenodd" d="M871.073 29.2066L860.009 33.9866L859.52 32.2567L870.11 27.6656L871.073 29.2066Z" fill="#8989A2"/>
<path fill-rule="evenodd" clip-rule="evenodd" d="M859.583 32.2417L871.957 29.9617L872.43 31.7067L863.276 33.4067L859.583 32.2417Z" fill="#8989A2"/>
<path fill-rule="evenodd" clip-rule="evenodd" d="M859.773 32.2256H872.573C872.718 32.8013 872.792 33.3928 872.794 33.9866L859.773 34.0026C859.657 34.003 859.542 33.9805 859.435 33.9365C859.328 33.8924 859.23 33.8277 859.148 33.746C859.066 33.6642 859.001 33.5671 858.956 33.4601C858.912 33.3532 858.889 33.2385 858.889 33.1226V33.1066C858.889 32.9906 858.912 32.8758 858.956 32.7687C859.001 32.6617 859.066 32.5644 859.148 32.4826C859.23 32.4007 859.328 32.3359 859.435 32.2918C859.542 32.2477 859.657 32.2252 859.773 32.2256Z" fill="#8989A2"/>
<path fill-rule="evenodd" clip-rule="evenodd" d="M933.7 24.8196C933.576 24.5687 933.433 24.327 933.274 24.0966L930.101 19.0016L933.701 13.4196L929.424 13.4036C929.313 13.4346 926.551 18.1206 926.188 18.7186V9.15859C925.778 9.12759 922.937 9.1116 922.588 9.1746V24.8356C923.33 24.8206 925.728 24.8666 926.188 24.8206L926.204 19.5376C926.314 19.6476 929.14 24.5066 929.266 24.8206L933.7 24.8196ZM944.023 20.0546C944.371 18.594 944.175 17.0565 943.47 15.7306C942.831 14.6516 941.812 13.85 940.613 13.4826C939.177 13.0163 937.621 13.0946 936.24 13.7026C934.997 14.2764 934.001 15.2787 933.436 16.5261C932.871 17.7734 932.774 19.1825 933.163 20.4956C933.857 23.2626 936.209 24.6786 938.907 24.9766C940.411 25.166 941.939 25.01 943.374 24.5206V21.9576H940.438C939.485 22.0067 938.538 21.783 937.708 21.3126C937.472 21.1776 937.265 20.9968 937.1 20.7807C936.934 20.5647 936.814 20.3178 936.745 20.0546H944.023ZM936.651 17.6806C936.656 17.4304 936.711 17.1838 936.814 16.9558C936.917 16.7277 937.065 16.5229 937.25 16.3539C937.434 16.1848 937.651 16.055 937.888 15.9723C938.124 15.8895 938.374 15.8556 938.624 15.8726C938.865 15.8569 939.107 15.893 939.333 15.9784C939.559 16.0638 939.764 16.1966 939.934 16.3678C940.105 16.5391 940.237 16.7448 940.321 16.9712C940.406 17.1977 940.441 17.4395 940.424 17.6806H936.651ZM914.934 16.3126C914.997 16.3101 915.06 16.3154 915.122 16.3286C916.338 16.3596 917.49 16.8946 917.616 18.0426C915.98 17.8879 914.33 18.1251 912.803 18.7346C912.131 19.0067 911.578 19.5089 911.243 20.1514C910.907 20.7939 910.811 21.5348 910.972 22.2416C911.138 23.0896 911.612 23.8462 912.302 24.3657C912.993 24.8852 913.851 25.131 914.712 25.0556C915.307 25.0929 915.903 24.985 916.447 24.7411C916.992 24.4972 917.468 24.1247 917.837 23.6556L918.39 24.8346H921.073L921.011 18.6706C920.995 17.1606 920.917 15.9976 920.001 14.9596C918.533 13.2776 916.055 12.8836 913.734 13.3396C913.028 13.4858 912.341 13.7074 911.683 14.0006V16.3116L914.934 16.3126ZM917.616 21.8476C917.285 22.4296 914.87 22.8856 914.587 21.6476C914.223 20.0126 917.143 20.1066 917.616 20.2636V21.8476ZM888.559 23.9546C888.659 24.1436 889.017 24.2686 889.223 24.3636C889.971 24.6866 890.764 24.8933 891.574 24.9766C893.831 25.2436 896.167 24.8346 897.351 22.8226C897.621 22.3431 897.772 21.8057 897.791 21.2556C897.811 20.7055 897.698 20.1589 897.462 19.6616C896.294 17.4756 892.68 17.8376 891.953 17.1296C891.862 17.0229 891.815 16.8858 891.821 16.7458C891.827 16.6058 891.885 16.4733 891.985 16.3746C892.493 16.0294 893.115 15.8943 893.721 15.9976H897.209V14.2676C897.115 14.0476 896.167 13.7016 895.868 13.5916C894.191 13.0217 892.37 13.044 890.708 13.6546C890.222 13.8426 889.784 14.1362 889.426 14.5143C889.068 14.8923 888.798 15.3453 888.636 15.8404C888.474 16.3356 888.425 16.8605 888.491 17.3771C888.557 17.8937 888.738 18.3892 889.019 18.8276C890.028 20.1486 891.513 20.2426 893.249 20.6516C893.706 20.7616 894.495 20.8876 894.449 21.4226C894.37 22.1616 892.887 22.2226 892.271 22.2406H888.562L888.559 23.9546ZM902.511 17.2086C903.027 16.6636 903.735 16.3409 904.485 16.3086C906.095 16.2926 906.426 17.3626 906.426 18.5886L906.41 19.5796V24.8316H910.01C910.025 22.5676 910.01 20.3186 910.041 18.0546C910.15 16.9612 909.982 15.8579 909.552 14.8466C909.201 14.2954 908.708 13.8495 908.125 13.5562C907.541 13.2628 906.889 13.133 906.238 13.1806C905.528 13.1531 904.822 13.2891 904.173 13.5779C903.525 13.8668 902.951 14.3009 902.497 14.8466V9.13859H898.897V24.8316H902.497L902.511 17.2086Z" fill="#8989A2"/>
</svg>
