<svg width="27" height="18" viewBox="0 0 27 18" fill="none" xmlns="http://www.w3.org/2000/svg">
<path d="M26.2319 8.34702C25.0486 5.97799 23.233 3.9825 20.9859 2.58134C18.7388 1.18019 16.1479 0.42801 13.4999 0.40802C10.8519 0.428235 8.26111 1.18051 6.01409 2.58164C3.76706 3.98276 1.95139 5.97813 0.767906 8.34702C0.665604 8.54949 0.612305 8.77317 0.612305 9.00002C0.612305 9.22687 0.665604 9.45055 0.767906 9.65302C1.95121 12.0221 3.76684 14.0175 6.01391 15.4187C8.26097 16.8198 10.8519 17.572 13.4999 17.592C16.1479 17.5718 18.7387 16.8195 20.9857 15.4184C23.2327 14.0173 25.0484 12.0219 26.2319 9.65302C26.3342 9.45055 26.3875 9.22687 26.3875 9.00002C26.3875 8.77317 26.3342 8.54949 26.2319 8.34702ZM13.4999 15.447C12.2254 15.447 10.9795 15.0691 9.91981 14.361C8.8601 13.6529 8.03416 12.6465 7.54643 11.469C7.05869 10.2915 6.93108 8.99587 7.17973 7.74586C7.42837 6.49584 8.0421 5.34763 8.94331 4.44642C9.84452 3.54521 10.9927 2.93148 12.2427 2.68284C13.4928 2.4342 14.7884 2.56181 15.9659 3.04954C17.1434 3.53727 18.1498 4.36321 18.8579 5.42292C19.566 6.48264 19.9439 7.72852 19.9439 9.00302C19.9431 10.7116 19.2638 12.3498 18.0554 13.5577C16.847 14.7655 15.2084 15.444 13.4999 15.444V15.447ZM13.4999 4.70702C13.1163 4.71247 12.7352 4.76966 12.3669 4.87702C12.6712 5.2894 12.8175 5.79728 12.7792 6.30837C12.7409 6.81946 12.5205 7.29985 12.1581 7.66226C11.7957 8.02466 11.3153 8.24504 10.8043 8.28335C10.2932 8.32166 9.78529 8.17535 9.37291 7.87102C9.138 8.73623 9.18033 9.65332 9.49393 10.4932C9.80753 11.3331 10.3766 12.0535 11.1211 12.5531C11.8656 13.0526 12.7479 13.3061 13.644 13.2779C14.5401 13.2497 15.4048 12.9412 16.1164 12.3958C16.828 11.8505 17.3506 11.0957 17.6108 10.2377C17.8709 9.37976 17.8555 8.46182 17.5666 7.6131C17.2778 6.76437 16.73 6.0276 16.0005 5.50646C15.271 4.98533 14.3964 4.70608 13.4999 4.70802V4.70702Z" fill="#722ED1"/>
</svg>
